<svg width="29" height="29" viewBox="0 0 29 29" fill="none" xmlns="http://www.w3.org/2000/svg">
<g clip-path="url(#clip0_13_397)">
<path d="M20.5785 6.23798V6.23802V10.9505C20.5785 11.4774 20.1464 11.9089 19.6095 11.9089C19.072 11.9089 18.6405 11.4775 18.6405 10.9505V6.23802C18.6405 3.99115 16.7967 2.16667 14.5354 2.16667C12.274 2.16667 10.4309 3.99121 10.4309 6.23802V10.9505C10.4309 11.4774 9.99881 11.9089 9.46192 11.9089C8.92503 11.9089 8.49292 11.4774 8.49292 10.9505V6.23802C8.49292 2.93862 11.2021 0.25 14.5354 0.25C17.8699 0.25 20.579 2.93865 20.5785 6.23798Z" stroke="white" stroke-width="0.5"/>
<path d="M22.398 10.9504V9.7936H28.5185C28.5939 9.7936 28.6231 9.82054 28.6325 9.83244C28.6417 9.84401 28.6602 9.87669 28.643 9.94661L24.3799 27.1598C24.1615 27.9717 23.276 28.6499 22.4235 28.6499H6.5765C5.72491 28.6499 4.83854 27.9715 4.62132 27.16L0.356895 9.94646C0.356883 9.94641 0.35687 9.94636 0.356858 9.94631C0.339887 9.87733 0.358183 9.84463 0.367632 9.83269C0.377372 9.82039 0.406826 9.7936 0.48151 9.7936H6.67448V10.9504C6.67448 12.4794 7.92753 13.7171 9.46248 13.7171C10.9974 13.7171 12.2505 12.4794 12.2505 10.9504V9.7936H16.822V10.9504C16.822 12.4794 18.0751 13.7171 19.61 13.7171C21.145 13.7171 22.398 12.4794 22.398 10.9504Z" stroke="white" stroke-width="0.7"/>
</g>
<defs>
<clipPath id="clip0_13_397">
<rect width="29" height="29" fill="white"/>
</clipPath>
</defs>
</svg>
