<svg width="34" height="34" viewBox="0 0 34 34" fill="none" xmlns="http://www.w3.org/2000/svg">
<g clip-path="url(#clip0_21_1144)">
<path d="M21.1704 5.3125C22.9726 5.79617 24.6159 6.74535 25.9353 8.06479C27.2547 9.38422 28.2039 11.0275 28.6876 12.8297" stroke="#E44716" stroke-width="1.5" stroke-linecap="round" stroke-linejoin="round"/>
<path d="M20.0679 9.41638C21.1518 9.70425 22.1403 10.2735 22.9333 11.0665C23.7263 11.8595 24.2956 12.8481 24.5835 13.932" stroke="#E44716" stroke-width="1.5" stroke-linecap="round" stroke-linejoin="round"/>
<path d="M12.2852 16.575C13.3785 18.8328 15.2042 20.6538 17.4648 21.7414C17.6316 21.8203 17.816 21.8545 18 21.8405C18.184 21.8266 18.3611 21.7649 18.5141 21.6617L21.8344 19.4437C21.9811 19.3442 22.1506 19.2835 22.3271 19.2673C22.5036 19.251 22.6813 19.2797 22.8438 19.3508L29.0594 22.0203C29.2718 22.1087 29.4493 22.2645 29.5645 22.4637C29.6797 22.6629 29.7262 22.8944 29.6969 23.1226C29.4999 24.6603 28.7493 26.0734 27.5857 27.0977C26.4221 28.1219 24.9252 28.6871 23.375 28.6875C18.5845 28.6875 13.9903 26.7845 10.6029 23.3971C7.21551 20.0097 5.3125 15.4155 5.3125 10.625C5.31285 9.07479 5.87803 7.57784 6.9023 6.41424C7.92656 5.25063 9.33972 4.50011 10.8773 4.30311C11.1056 4.27379 11.3371 4.32031 11.5363 4.4355C11.7355 4.5507 11.8913 4.72817 11.9797 4.94061L14.6492 11.1695C14.7186 11.3293 14.7477 11.5038 14.7338 11.6775C14.7199 11.8512 14.6635 12.0188 14.5695 12.1656L12.3516 15.539C12.2528 15.6916 12.1949 15.867 12.1832 16.0484C12.1716 16.2297 12.2067 16.411 12.2852 16.575Z" stroke="#E44716" stroke-width="1.5" stroke-linecap="round" stroke-linejoin="round"/>
</g>
<defs>
<clipPath id="clip0_21_1144">
<rect width="34" height="34" fill="white"/>
</clipPath>
</defs>
</svg>
