<svg width="150" height="150" viewBox="0 0 150 150" fill="none" xmlns="http://www.w3.org/2000/svg">
<path d="M137.5 133.036H12.5C5.60625 133.036 0 126.554 0 118.583V31.8638C0 23.8929 5.60625 17.4107 12.5 17.4107H137.5C144.394 17.4107 150 23.8929 150 31.8638V118.583C150 126.554 144.394 133.036 137.5 133.036ZM12.5 24.6373C9.05312 24.6373 6.25 27.8784 6.25 31.8638V118.583C6.25 122.568 9.05312 125.809 12.5 125.809H137.5C140.947 125.809 143.75 122.568 143.75 118.583V31.8638C143.75 27.8784 140.947 24.6373 137.5 24.6373H12.5Z" fill="#E44716"/>
<path d="M75.0001 90.2298L20.1782 49.2155C18.7282 48.1279 18.3126 45.8949 19.2501 44.2183C20.1876 42.5417 22.1219 42.0648 23.5719 43.1452L75.0001 81.623L126.428 43.1452C127.878 42.0648 129.813 42.5417 130.75 44.2183C131.688 45.8949 131.272 48.1279 129.822 49.2155L75.0001 90.2298Z" fill="#E44716"/>
<path d="M18.7532 107.606C17.7438 107.606 16.7501 107.043 16.1501 105.998C15.1907 104.336 15.5782 102.096 17.0157 100.987L45.1407 79.307C46.5782 78.1977 48.5188 78.6457 49.4751 80.3079C50.4345 81.97 50.047 84.2102 48.6095 85.3195L20.4845 106.999C19.9501 107.407 19.347 107.606 18.7532 107.606Z" fill="#E44716"/>
<path d="M131.247 107.606C130.653 107.606 130.05 107.407 129.516 106.999L101.391 85.3194C99.9532 84.2101 99.5657 81.9699 100.525 80.3078C101.481 78.6457 103.419 78.1976 104.859 79.3069L132.984 100.987C134.422 102.096 134.809 104.336 133.85 105.998C133.25 107.042 132.256 107.606 131.247 107.606Z" fill="#E44716"/>
</svg>
