<svg width="32" height="32" viewBox="0 0 32 32" fill="none" xmlns="http://www.w3.org/2000/svg">
<path d="M27.0779 7.23558V24.8656C27.0763 25.6086 26.7809 26.3207 26.2562 26.8466C25.7314 27.3725 25.0199 27.6694 24.277 27.6726H6.94399C6.20212 27.6694 5.49155 27.3733 4.96696 26.8487C4.44238 26.3242 4.14626 25.6136 4.14307 24.8717V7.23558C4.14466 6.49266 4.44008 5.78053 4.96483 5.25464C5.48959 4.72875 6.20108 4.43179 6.94399 4.42859H24.277" stroke="#E44716" stroke-width="1.5" stroke-linecap="round" stroke-linejoin="round"/>
<path d="M27.1082 5.823C27.443 5.823 27.7145 5.55156 27.7145 5.21673C27.7145 4.88191 27.443 4.61047 27.1082 4.61047C26.7734 4.61047 26.502 4.88191 26.502 5.21673C26.502 5.55156 26.7734 5.823 27.1082 5.823Z" fill="#E44716"/>
<path d="M20.1907 12.4131C20.5256 12.4131 20.797 12.1417 20.797 11.8068C20.797 11.472 20.5256 11.2006 20.1907 11.2006C19.8559 11.2006 19.5845 11.472 19.5845 11.8068C19.5845 12.1417 19.8559 12.4131 20.1907 12.4131Z" fill="#E44716"/>
<path d="M10.9392 8.96948C10.3671 9.01231 9.83246 9.2698 9.4423 9.69031C9.05215 10.1108 8.83538 10.6633 8.83545 11.2369V20.8643C8.83705 21.4684 9.07773 22.0473 9.50488 22.4744C9.93203 22.9016 10.5109 23.1423 11.115 23.1439H16.3228" stroke="#E44716" stroke-width="1.5" stroke-linecap="round" stroke-linejoin="round"/>
<path d="M16.3231 23.1438H20.7427C21.3468 23.1422 21.9257 22.9015 22.3528 22.4744C22.78 22.0472 23.0206 21.4683 23.0222 20.8643V11.2368C23.0206 10.6328 22.78 10.0539 22.3528 9.62673C21.9257 9.19958 21.3468 8.9589 20.7427 8.9573H11.1153C11.0568 8.95108 10.9979 8.95108 10.9395 8.9573" stroke="#E44716" stroke-width="1.5" stroke-linecap="round" stroke-linejoin="round"/>
<path d="M17.1411 12.8617C16.459 12.603 15.7121 12.5693 15.0094 12.7654C14.3068 12.9615 13.6853 13.3772 13.2357 13.9517C12.7862 14.5262 12.5321 15.2294 12.5107 15.9586C12.4894 16.6878 12.7018 17.4047 13.1169 18.0046C13.532 18.6045 14.1281 19.0558 14.818 19.2928C15.508 19.5297 16.2556 19.5398 16.9517 19.3215C17.6478 19.1032 18.2558 18.668 18.6869 18.0796C19.118 17.4911 19.3496 16.7802 19.3479 16.0507" stroke="#E44716" stroke-width="1.5" stroke-linecap="round" stroke-linejoin="round"/>
</svg>
