<svg width="150" height="150" viewBox="0 0 150 150" fill="none" xmlns="http://www.w3.org/2000/svg">
<path d="M126.927 33.9167V116.558C126.919 120.04 125.535 123.378 123.075 125.843C120.615 128.308 117.28 129.7 113.797 129.715H32.549C29.0715 129.7 25.7407 128.312 23.2817 125.853C20.8227 123.394 19.4346 120.064 19.4197 116.586V33.9167C19.4272 30.4342 20.8119 27.0961 23.2717 24.631C25.7315 22.1659 29.0666 20.7739 32.549 20.7589H113.797" stroke="#E44716" stroke-width="7" stroke-linecap="round" stroke-linejoin="round"/>
<path d="M127.069 27.2952C128.639 27.2952 129.911 26.0229 129.911 24.4534C129.911 22.8839 128.639 21.6115 127.069 21.6115C125.5 21.6115 124.227 22.8839 124.227 24.4534C124.227 26.0229 125.5 27.2952 127.069 27.2952Z" fill="#E44716"/>
<path d="M94.6435 58.1861C96.213 58.1861 97.4853 56.9137 97.4853 55.3442C97.4853 53.7747 96.213 52.5024 94.6435 52.5024C93.074 52.5024 91.8016 53.7747 91.8016 55.3442C91.8016 56.9137 93.074 58.1861 94.6435 58.1861Z" fill="#E44716"/>
<path d="M51.2769 42.0443C48.5955 42.2451 46.0891 43.452 44.2603 45.4232C42.4314 47.3943 41.4153 49.9839 41.4156 52.6728V97.8014C41.4232 100.633 42.5513 103.347 44.5536 105.349C46.5559 107.351 49.2694 108.479 52.101 108.487H76.5125" stroke="#E44716" stroke-width="7" stroke-linecap="round" stroke-linejoin="round"/>
<path d="M76.5126 108.487H97.2297C100.061 108.479 102.775 107.351 104.777 105.349C106.779 103.347 107.908 100.633 107.915 97.8014V52.6729C107.908 49.8412 106.779 47.1277 104.777 45.1255C102.775 43.1232 100.061 41.995 97.2297 41.9875H52.1011C51.8272 41.9583 51.5509 41.9583 51.277 41.9875" stroke="#E44716" stroke-width="7" stroke-linecap="round" stroke-linejoin="round"/>
<path d="M80.3489 60.289C77.1516 59.0764 73.6503 58.9182 70.3566 59.8374C67.063 60.7566 64.1496 62.7052 62.0424 65.3982C59.9351 68.0913 58.7443 71.3877 58.6441 74.8057C58.5439 78.2238 59.5394 81.5843 61.4853 84.3962C63.4312 87.2081 66.2254 89.3239 69.4595 90.4346C72.6936 91.5452 76.1982 91.5924 79.4611 90.5692C82.7239 89.546 85.574 87.5061 87.5949 84.7476C89.6157 81.9892 90.7014 78.6567 90.6932 75.2371" stroke="#E44716" stroke-width="7" stroke-linecap="round" stroke-linejoin="round"/>
</svg>
