<svg width="39" height="39" viewBox="0 0 39 39" fill="none" xmlns="http://www.w3.org/2000/svg">
<g clip-path="url(#clip0_55_13)">
<path d="M35.355 23.0864C35.3548 23.0887 35.3547 23.0903 35.3546 23.0912L35.3546 23.0912L35.3538 23.0992C34.5204 31.6111 27.6358 38.2401 19.2857 38.2401C10.8092 38.2401 3.85633 31.4013 3.19986 22.7007C3.21019 22.4813 3.26526 22.2152 3.43646 22.0056C3.6026 21.8021 3.91153 21.6113 4.51884 21.6113H33.736C33.9566 21.617 34.371 21.6542 34.7285 21.823C35.0714 21.9848 35.3464 22.2562 35.3709 22.7519C35.368 22.8003 35.3666 22.8485 35.3653 22.8922L35.3648 22.9116C35.3631 22.965 35.3614 23.0122 35.3575 23.0573C35.356 23.0703 35.3553 23.0815 35.355 23.0864Z" fill="#E44716" stroke="white" stroke-width="0.5"/>
<path d="M13.9701 10.001L13.97 10.0012C14.214 10.0629 14.4668 10.1042 14.7266 10.1192L14.8679 10.1274V10.1364L14.8933 10.1365C14.8934 10.1365 14.8935 10.1365 14.8936 10.1365L13.9701 10.001ZM13.9701 10.001L13.9627 9.99956C12.1659 9.63963 10.8131 8.05642 10.8131 6.1557C10.8131 4.43602 11.9288 2.98915 13.4742 2.46222L13.496 2.45477L13.5146 2.4411C13.5234 2.43466 13.5298 2.4302 13.5365 2.42618C13.543 2.42231 13.5508 2.41823 13.5612 2.41399L13.5612 2.414L13.5624 2.41353C13.6506 2.37679 13.7758 2.34492 13.9323 2.31742M13.9701 10.001L13.9323 2.31742M14.7136 2.23814C14.724 2.23785 14.7331 2.23675 14.7394 2.23581C14.7397 2.23581 14.7399 2.23581 14.7402 2.23581L14.7415 2.23581C14.747 2.23582 14.7583 2.23583 14.7698 2.23521H19.3459C19.7557 2.23521 20.0242 2.12108 20.1921 1.95091C20.3577 1.78301 20.4044 1.58167 20.4151 1.44742L20.4156 1.44745V1.43552V1.43479V1.43405V1.43332V1.43259V1.43186V1.43113V1.43039V1.42966V1.42893V1.42819V1.42746V1.42672V1.42599V1.42525V1.42452V1.42378V1.42304V1.42231V1.42157V1.42083V1.42009V1.41935V1.41862V1.41788V1.41714V1.4164V1.41566V1.41492V1.41418V1.41343V1.41269V1.41195V1.41121V1.41047V1.40972V1.40898V1.40824V1.40749V1.40675V1.406V1.40526V1.40451V1.40376V1.40302V1.40227V1.40152V1.40078V1.40003V1.39928V1.39853V1.39778V1.39703V1.39628V1.39553V1.39478V1.39403V1.39328V1.39253V1.39178V1.39102V1.39027V1.38952V1.38876V1.38801V1.38725V1.3865V1.38574V1.38499V1.38423V1.38347V1.38272V1.38196V1.3812V1.38044V1.37969V1.37893V1.37817V1.37741V1.37665V1.37589V1.37512V1.37436V1.3736V1.37284V1.37208V1.37131V1.37055V1.36978V1.36902V1.36825V1.36749V1.36672V1.36596V1.36519V1.36442V1.36365V1.36289V1.36212V1.36135V1.36058V1.35981V1.35904V1.35827V1.3575V1.35673V1.35595V1.35518V1.35441V1.35364V1.35286V1.35209V1.35131V1.35054V1.34976V1.34899V1.34821V1.34743V1.34665V1.34588V1.3451V1.34432V1.34354V1.34276V1.34198V1.3412V1.34042V1.33964V1.33885V1.33807V1.33729V1.3365V1.33572V1.33494V1.33415V1.33337V1.33258V1.33179V1.33101V1.33022V1.32943V1.32864V1.32785V1.32706V1.32627V1.32548V1.32469V1.3239V1.32311V1.32232V1.32152V1.32073V1.31994V1.31914V1.31835V1.31755V1.31676V1.31596V1.31516V1.31437V1.31357V1.31277V1.31197V1.31117V1.31037V1.30957V1.30877V1.30797V1.30717V1.30637V1.30556V1.30476V1.30395V1.30315V1.30235V1.30154V1.30073V1.29993V1.29912V1.29831V1.2975V1.29669V1.29589V1.29508V1.29427V1.29345V1.29264V1.29183V1.29102V1.29021V1.28939V1.28858V1.28776V1.28695V1.28613V1.28532V1.2845V1.28368V1.28286V1.28205V1.28123V1.28041V1.27959V1.27877V1.27795V1.27712V1.2763V1.27548V1.27465V1.27383V1.27301V1.27218V1.27136V1.27053V1.2697V1.26887V1.26805V1.26722V1.26639V1.26556V1.26473V1.2639V1.26307V1.26224V1.2614V1.26057V1.25974V1.2589V1.25807V1.25723V1.25639V1.25556V1.25472V1.25388V1.25304V1.25221V1.25137V1.25053V1.24969V1.24884V1.248V1.24716V1.24632V1.24547V1.24463V1.24378V1.24294V1.24209V1.24124V1.2404V1.23955V1.2387V1.23785V1.237V1.23615V1.2353V1.23445V1.2336V1.23274V1.23189V1.23104V1.23018V1.22933V1.22847V1.22761V1.22676V1.2259V1.22504V1.22418V1.22332V1.22246V1.2216V1.22074V1.21988V1.21901V1.21815V1.21729V1.21642V1.21556V1.21469V1.21382V1.21296V1.21209V1.21122V1.21035V1.20948V1.20861V1.20774V1.20687V1.20599V1.20512V1.20425V1.20337V1.2025V1.20162V1.20075V1.19987V1.19899V1.19811V1.19723V1.19635V1.19547V1.19459V1.19371V1.19283V1.19195V1.19106V1.19018V1.18929V1.18841V1.18752V1.18663V1.18575V1.18486V1.18397V1.18308V1.18219V1.1813V1.18041V1.17951V1.17862V1.17773V1.17683V1.17594V1.17504V1.17414V1.17325V1.17235V1.17145V1.17055V1.16965V1.16875V1.16785V1.16695V1.16604V1.16514V1.16424V1.16333V1.16243V1.16152V1.16061V1.1597V1.1588V1.15789V1.15698V1.15607V1.15515V1.15424V1.15333V1.15242V1.1515V1.15059V1.14967V1.14876V1.14784V1.14692V1.146V1.14508V1.14416V1.14324V1.14232V1.1414V1.14048V1.13955V1.13863V1.1377V1.13678V1.13585V1.13492V1.134V1.13307V1.13214V1.13121V1.13028V1.12935V1.12841V1.12748V1.12655V1.12561V1.12468V1.12374V1.1228V1.12186V1.12093V1.11999V1.11905V1.11811V1.11717V1.11622V1.11528V1.11434V1.11339V1.11245V1.1115V1.11055V1.10961V1.10866V1.10771V1.10676V1.10581V1.10486V1.1039V1.10295V1.102V1.10104V1.10009V1.09913V1.09818V1.09722V1.09626V1.0953V1.09434V1.09338V1.09242V1.09146V1.09049V1.08953V1.08856V1.0876V1.08663V1.08567V1.0847V1.08373V1.08276V1.08179V1.08082V1.07985V1.07887V1.0779V1.07693V1.07595V1.07497V1.074V1.07302V1.07204V1.07106V1.07008V1.0691V1.06812V1.06714V1.06616V1.06517V1.06419V1.0632V1.06221V1.06123V1.06024V1.05925V1.05826V1.05727V1.05628V1.05529V1.05429V1.0533V1.05231V1.05131V1.05031V1.04932V1.04832V1.04732V1.04632V1.04532V1.04432V1.04332V1.04231V1.04131V1.0403V1.0393V1.03829V1.03728V1.03628V1.03527V1.03426V1.03325V1.03223V1.03122V1.03021V1.02919V1.02818V1.02716V1.02615V1.02513V1.02411V1.02309V1.02207V1.02105V1.02003V1.01901V1.01798V1.01696V1.01593V1.01491V1.01388V1.01285V1.01182V1.01079V1.00976V1.00873V1.0077V1.00666V1.00563V1.0046V1.00356V1.00252V1.00149V1.00045V0.999407V0.998367V0.997325V0.996283V0.99524V0.994196V0.993152C20.4156 0.837396 20.4615 0.720106 20.5339 0.627798C20.6081 0.533208 20.7161 0.457409 20.8497 0.398177C21.1143 0.280865 21.4502 0.241091 21.7244 0.231766C21.7536 0.238489 21.8207 0.258884 21.8834 0.312421C21.9523 0.371184 22.0315 0.482498 22.0315 0.706277V2.07863C22.0045 2.35585 21.9163 2.78025 21.6415 3.13389C21.3704 3.48283 20.9035 3.78121 20.0769 3.78121H19.6996H19.2169H15.053C13.854 3.78121 12.8816 4.75296 12.8816 5.95259C12.8816 6.69275 13.2516 7.3443 13.8161 7.73565C13.8221 7.74066 13.8278 7.74473 13.8325 7.74794C13.8406 7.75339 13.8479 7.75761 13.8522 7.76001L13.859 7.76383L13.8612 7.76533C13.9276 7.80981 14.0014 7.84626 14.064 7.87721C14.0745 7.88242 14.0847 7.88747 14.0946 7.89238L14.0943 7.89284L14.1058 7.89743C14.3628 8.00056 14.6824 8.04911 14.9292 8.07275C15.0543 8.08472 15.1641 8.09059 15.2427 8.09347C15.2821 8.09491 15.3138 8.09561 15.3358 8.09594L15.3613 8.09623L15.3682 8.09625L15.3701 8.09626L15.3706 8.09625H15.3707H15.3709H15.3709H16.8719H17.1943H24.0974V8.09671L24.109 8.09581L14.7157 2.23389L14.7083 2.08822V2.23822C14.7101 2.23822 14.7118 2.23819 14.7136 2.23814ZM14.7136 2.23814C14.7143 2.2381 14.7151 2.23806 14.7159 2.23803L14.7157 2.23391L19.3459 2.08521H14.7649C14.7577 2.08581 14.748 2.08581 14.7402 2.08581C14.7393 2.08581 14.7384 2.08566 14.7375 2.08551C14.7366 2.08536 14.7357 2.08521 14.7348 2.08521C14.73 2.08521 14.7257 2.08596 14.7215 2.08671C14.7173 2.08747 14.7131 2.08822 14.7083 2.08822C14.4232 2.10268 14.152 2.128 13.9218 2.16717M14.7136 2.23814C14.4351 2.25233 14.1731 2.27689 13.9525 2.31411M13.9525 2.31411C13.9573 2.31303 13.963 2.31155 13.9692 2.30947L13.9218 2.16717M13.9525 2.31411C13.9503 2.3146 13.9482 2.315 13.9464 2.31534C13.9407 2.31641 13.9359 2.317 13.9332 2.31731L13.9323 2.31742M13.9525 2.31411C13.9506 2.31442 13.9488 2.31473 13.9469 2.31504L13.9218 2.16717M13.9218 2.16717L13.9323 2.31742M11.9662 14.7931L11.9671 14.7915C11.9675 14.791 11.9676 14.7909 11.9675 14.791L11.9654 14.7938C11.9649 14.7946 11.9644 14.7951 11.9643 14.7953C11.9642 14.7954 11.9642 14.7954 11.9642 14.7954L11.9662 14.7931ZM11.9662 14.7931C11.9669 14.7922 11.9678 14.7913 11.9686 14.7902L11.9658 14.7937L11.9662 14.7931ZM11.9682 14.7928C11.9719 14.7897 11.9764 14.7857 11.9814 14.7809L24.412 15.875L24.4101 15.8752C24.4024 15.8764 24.399 15.8768 24.3979 15.8769C24.3967 15.8768 24.3935 15.8764 24.3863 15.8754L24.3842 15.8751C24.3741 15.8736 24.3552 15.8709 24.3344 15.8704L24.3344 15.8703L24.3301 15.8703L23.8359 15.8721L23.6864 15.8727V15.8758L15.1199 15.8752C13.8132 15.8752 13.2766 16.2601 13.0666 16.508L13.0663 16.5077L13.0598 16.5167C13.0589 16.5179 13.0574 16.5198 13.0523 16.5257L13.051 16.5272C13.0473 16.5315 13.0412 16.5385 13.035 16.5465C13.0267 16.5562 13.0207 16.5652 13.0163 16.5724L13.0136 16.5769L13.0131 16.5777C12.9427 16.6854 12.887 16.8012 12.8445 16.9219L12.8169 16.9189L12.7969 17.0634L12.7969 17.0634L12.7969 17.0635L12.7968 17.0638L12.7965 17.0659L12.795 17.0755C12.7937 17.0841 12.7916 17.0971 12.7886 17.1139C12.7826 17.1475 12.7733 17.196 12.7599 17.2544C12.733 17.3719 12.6904 17.5269 12.6275 17.6808C12.5641 17.8361 12.4834 17.9818 12.3842 18.0874C12.2873 18.1907 12.1794 18.2495 12.0535 18.2527L11.7635 18.2527C11.7634 18.2527 11.7632 18.2527 11.7631 18.2527C11.484 18.2516 11.3171 18.1566 11.2133 18.0521C11.1071 17.9451 11.0567 17.8172 11.0334 17.735C10.9894 17.5386 10.9625 17.3384 10.9625 17.1317C10.9625 16.2264 11.3375 15.4158 11.9383 14.8295L11.9495 14.8185L11.9583 14.8054L11.9644 14.7959L11.9682 14.7928ZM24.4656 15.8703C24.4654 15.8703 24.4651 15.8703 24.4648 15.8703L24.109 8.0958L24.109 8.0958L24.1096 8.09576L24.1122 8.09557L24.1234 8.09481C24.1334 8.09416 24.1485 8.09323 24.1683 8.09221C24.2078 8.09016 24.2658 8.0877 24.339 8.08614C24.4854 8.08303 24.6916 8.08354 24.9301 8.09809C25.4092 8.12731 26.0064 8.21256 26.5087 8.43084C26.6132 8.47935 26.7158 8.53111 26.816 8.59324C26.8593 8.62012 26.901 8.64898 26.943 8.68017L26.9429 8.68021L26.946 8.68238C27.0888 8.78306 27.2233 8.88917 27.3475 9.02115L27.3474 9.0212L27.3507 9.02444C27.3616 9.0354 27.372 9.04432 27.379 9.05026C27.3826 9.05362 27.3858 9.05648 27.3885 9.05881L27.3925 9.06222C27.3948 9.06581 27.3988 9.0718 27.4032 9.07792L27.4108 9.08842L27.4201 9.09746C27.749 9.4183 28.0015 9.81143 28.1715 10.2486L28.1712 10.2487L28.1753 10.2575C28.4069 10.7549 28.544 11.3047 28.544 11.8896C28.544 13.7897 27.1911 15.3729 25.3962 15.7328L25.3962 15.7327L25.3889 15.7345C25.145 15.7962 24.8898 15.8374 24.6305 15.8525L24.4892 15.8607V15.8702L24.4656 15.8703Z" fill="#E44716" stroke="white" stroke-width="0.3"/>
</g>
<defs>
<clipPath id="clip0_55_13">
<rect width="38.5714" height="38.5714" fill="white"/>
</clipPath>
</defs>
</svg>
