<svg width="39" height="39" viewBox="0 0 39 39" fill="none" xmlns="http://www.w3.org/2000/svg">
<g clip-path="url(#clip0_196_9)">
<path d="M27.457 2.90998C27.3815 2.90998 27.3059 2.91547 27.2315 2.91852C27.2175 2.91791 27.2096 2.91547 27.1944 2.91486C26.2419 2.88683 25.9311 2.50048 25.9311 2.50048C25.9311 2.50048 25.9275 2.50475 25.9257 2.50658C24.3772 0.949016 22.2481 -0.015625 19.891 -0.015625C16.4956 -0.015625 13.5663 1.98495 12.1751 4.87887C12.166 4.8935 12.1593 4.90386 12.1507 4.9197C11.8424 5.49312 11.4012 5.51872 11.1885 5.49191C11.1477 5.48581 11.1111 5.47423 11.0703 5.46936L11.066 5.46814V5.46875C10.8077 5.4328 10.5444 5.41391 10.2757 5.41391C7.01492 5.41391 4.36719 8.09698 4.36719 11.3998C4.36719 14.2175 6.29403 16.5795 8.88022 17.2132L8.87839 17.2187C8.87839 17.2187 8.90277 17.2218 8.93567 17.2279C8.97102 17.2352 9.00392 17.2486 9.03988 17.2547C9.26047 17.3229 9.65961 17.5252 9.88325 18.137C9.88325 18.137 9.88325 18.1377 9.88325 18.1389L14.0636 29.5762C14.0636 29.5762 14.4164 30.6475 15.5986 30.6475H23.284C24.3297 30.6475 24.7599 29.9827 24.919 29.6244L25.0006 29.4026L25.0025 29.4007L29.212 17.886C29.212 17.886 29.4503 17.2571 30.1895 16.8988C30.2077 16.8897 30.2157 16.8823 30.2297 16.875C32.8177 15.7739 34.6336 13.1932 34.6336 10.1804C34.633 6.16831 31.4247 2.90998 27.457 2.90998Z" fill="#E44716"/>
<path d="M16.3835 34.8542C15.9289 34.9042 15.52 35.0962 15.2135 35.3844C14.9838 35.5306 14.7516 35.7537 14.5115 36.0517C13.7559 36.9639 12.5816 38.6214 10.9113 38.0632C10.904 38.0632 10.9022 38.0693 10.8949 38.0669C10.4275 37.9712 10.7578 38.2649 10.8632 38.3521C11.8461 39.0669 12.9783 39.4032 14.2666 38.3222C14.2727 38.3185 14.2769 38.3185 14.2842 38.3143C14.6718 38.0431 14.9399 38.1887 15.0746 38.3124C15.1002 38.3423 15.1264 38.3722 15.1538 38.3996C15.1666 38.416 15.1758 38.4294 15.1758 38.4294L15.1739 38.4148C15.6005 38.8249 16.1934 39.0577 16.8241 38.9913C17.963 38.8676 18.7906 37.842 18.6705 36.7043C18.5493 35.5617 17.5237 34.7348 16.3835 34.8542Z" fill="#E44716"/>
<path d="M28.0454 38.1315V38.1296C26.486 38.4861 25.38 36.9249 24.6573 36.0517C24.4172 35.7543 24.1868 35.5313 23.9559 35.3844C23.6494 35.0962 23.2411 34.9042 22.7865 34.8542C21.647 34.7348 20.6196 35.5617 20.4995 36.7037C20.3758 37.8414 21.207 38.867 22.3447 38.9907C22.99 39.0565 23.5994 38.817 24.026 38.3904L24.0296 38.3923C24.0296 38.3923 24.0333 38.3862 24.0375 38.3825C24.0552 38.3624 24.0711 38.3423 24.0887 38.3216C24.1948 38.218 24.4598 38.0724 24.9815 38.3917C24.9955 38.4008 24.9979 38.399 25.0107 38.4063C26.1508 39.2966 27.1649 39.0894 28.0606 38.5172C28.7145 38.0212 28.0454 38.1315 28.0454 38.1315Z" fill="#E44716"/>
</g>
<defs>
<clipPath id="clip0_196_9">
<rect width="39" height="39" fill="white"/>
</clipPath>
</defs>
</svg>
