<svg width="32" height="32" viewBox="0 0 32 32" fill="none" xmlns="http://www.w3.org/2000/svg">
<path d="M29.3333 28H2.66667C1.196 28 0 26.7666 0 25.25V8.75C0 7.23337 1.196 6 2.66667 6H29.3333C30.804 6 32 7.23337 32 8.75V25.25C32 26.7666 30.804 28 29.3333 28ZM2.66667 7.375C1.93133 7.375 1.33333 7.99169 1.33333 8.75V25.25C1.33333 26.0083 1.93133 26.625 2.66667 26.625H29.3333C30.0687 26.625 30.6667 26.0083 30.6667 25.25V8.75C30.6667 7.99169 30.0687 7.375 29.3333 7.375H2.66667Z" fill="#E44716"/>
<path d="M15.9998 20.249L4.30445 11.4992C3.99512 11.2672 3.90645 10.7908 4.10645 10.4332C4.30645 10.0755 4.71912 9.97376 5.02845 10.2042L15.9998 18.4128L26.9711 10.2042C27.2805 9.97376 27.6931 10.0755 27.8931 10.4332C28.0931 10.7908 28.0045 11.2672 27.6951 11.4992L15.9998 20.249Z" fill="#E44716"/>
<path d="M4.00072 23.9559C3.78539 23.9559 3.57339 23.8357 3.44539 23.6129C3.24072 23.2583 3.32339 22.7804 3.63006 22.5438L9.63006 17.9188C9.93672 17.6821 10.3507 17.7777 10.5547 18.1323C10.7594 18.4869 10.6767 18.9648 10.3701 19.2014L4.37006 23.8264C4.25606 23.9135 4.12739 23.9559 4.00072 23.9559Z" fill="#E44716"/>
<path d="M27.9994 22.9559C27.8727 22.9559 27.7441 22.9135 27.6301 22.8264L21.6301 18.2014C21.3234 17.9648 21.2407 17.4869 21.4454 17.1323C21.6494 16.7777 22.0627 16.6821 22.3701 16.9188L28.3701 21.5438C28.6767 21.7804 28.7594 22.2583 28.5547 22.6129C28.4267 22.8357 28.2147 22.9559 27.9994 22.9559Z" fill="#E44716"/>
</svg>
