<svg width="150" height="150" viewBox="0 0 150 150" fill="none" xmlns="http://www.w3.org/2000/svg">
<g clip-path="url(#clip0_9_312)">
<path d="M93.3984 23.4375C101.349 25.5713 108.599 29.7589 114.42 35.5799C120.241 41.401 124.429 48.6507 126.563 56.6016" stroke="#E44716" stroke-width="7" stroke-linecap="round" stroke-linejoin="round"/>
<path d="M88.5352 41.543C93.3171 42.813 97.6783 45.3245 101.177 48.8231C104.675 52.3216 107.187 56.6829 108.457 61.4648" stroke="#E44716" stroke-width="7" stroke-linecap="round" stroke-linejoin="round"/>
<path d="M54.1992 73.125C59.0228 83.086 67.0774 91.12 77.0508 95.918C77.7865 96.2663 78.6002 96.4171 79.4118 96.3554C80.2235 96.2938 81.0051 96.0219 81.6797 95.5664L96.3281 85.7813C96.9753 85.3423 97.7232 85.0745 98.5019 85.0027C99.2806 84.931 100.065 85.0577 100.781 85.3711L128.203 97.1484C129.14 97.5385 129.923 98.2259 130.432 99.1046C130.94 99.9834 131.145 101.005 131.016 102.012C130.146 108.795 126.835 115.03 121.702 119.549C116.568 124.067 109.964 126.561 103.125 126.563C81.9906 126.563 61.7217 118.167 46.7774 103.223C31.8331 88.2783 23.4375 68.0094 23.4375 46.875C23.439 40.0359 25.9325 33.4317 30.4513 28.2982C34.9701 23.1646 41.2047 19.8535 47.9883 18.9844C48.9951 18.855 50.0166 19.0603 50.8954 19.5685C51.7741 20.0767 52.4615 20.8597 52.8516 21.7969L64.6289 49.2774C64.9352 49.9825 65.0633 50.7522 65.002 51.5185C64.9407 52.2849 64.6918 53.0244 64.2773 53.6719L54.4922 68.5547C54.0565 69.2278 53.8009 70.0015 53.7496 70.8016C53.6983 71.6018 53.8531 72.4018 54.1992 73.125Z" stroke="#E44716" stroke-width="7" stroke-linecap="round" stroke-linejoin="round"/>
</g>
<defs>
<clipPath id="clip0_9_312">
<rect width="150" height="150" fill="white"/>
</clipPath>
</defs>
</svg>
