<svg width="34" height="34" viewBox="0 0 34 34" fill="none" xmlns="http://www.w3.org/2000/svg">
<g clip-path="url(#clip0_21_1126)">
<path d="M9.98732 17.9164L21.9272 28.4219C22.0652 28.5441 22.2325 28.6282 22.4129 28.6661C22.5932 28.7041 22.7803 28.6944 22.9558 28.6381C23.1313 28.5819 23.2892 28.4809 23.4138 28.3452C23.5385 28.2095 23.6258 28.0437 23.667 27.8641L28.6608 6.05629C28.7026 5.86848 28.6927 5.67282 28.6321 5.49021C28.5714 5.3076 28.4623 5.14488 28.3164 5.01943C28.1705 4.89398 27.9933 4.8105 27.8036 4.77792C27.614 4.74533 27.4191 4.76486 27.2397 4.83441L2.72248 14.4633C1.73967 14.8485 1.87248 16.2829 2.90842 16.4954L9.98732 17.9164Z" stroke="#E44716" stroke-width="1.5" stroke-linecap="round" stroke-linejoin="round"/>
<path d="M9.9873 17.9164L28.0631 4.86096" stroke="#E44716" stroke-width="1.5" stroke-linecap="round" stroke-linejoin="round"/>
<path d="M15.9506 23.1625L11.8068 27.3062C11.659 27.4563 11.4699 27.5591 11.2635 27.6015C11.0571 27.6439 10.8428 27.6239 10.6478 27.5442C10.4528 27.4645 10.2858 27.3286 10.1682 27.1538C10.0506 26.979 9.98766 26.7732 9.9873 26.5625V17.9164" stroke="#E44716" stroke-width="1.5" stroke-linecap="round" stroke-linejoin="round"/>
</g>
<defs>
<clipPath id="clip0_21_1126">
<rect width="34" height="34" fill="white"/>
</clipPath>
</defs>
</svg>
