<svg width="150" height="150" viewBox="0 0 150 150" fill="none" xmlns="http://www.w3.org/2000/svg">
<g clip-path="url(#clip0_9_299)">
<path d="M51.5625 79.043L104.238 125.391C104.847 125.93 105.586 126.301 106.381 126.468C107.177 126.635 108.002 126.593 108.777 126.345C109.551 126.096 110.247 125.651 110.797 125.052C111.347 124.454 111.732 123.722 111.914 122.93L133.945 26.7187C134.13 25.8902 134.086 25.027 133.819 24.2213C133.551 23.4157 133.07 22.6978 132.426 22.1443C131.783 21.5909 131.001 21.2226 130.164 21.0789C129.327 20.9351 128.467 21.0213 127.676 21.3281L19.5117 63.8086C15.1758 65.5078 15.7617 71.8359 20.332 72.7734L51.5625 79.043Z" stroke="#E44716" stroke-width="7" stroke-linecap="round" stroke-linejoin="round"/>
<path d="M51.5625 79.043L131.309 21.4453" stroke="#E44716" stroke-width="7" stroke-linecap="round" stroke-linejoin="round"/>
<path d="M77.8711 102.188L59.5898 120.469C58.9376 121.131 58.1033 121.584 57.1928 121.771C56.2823 121.958 55.3368 121.87 54.4764 121.519C53.616 121.167 52.8796 120.567 52.3607 119.796C51.8419 119.025 51.5641 118.117 51.5625 117.188V79.043" stroke="#E44716" stroke-width="7" stroke-linecap="round" stroke-linejoin="round"/>
</g>
<defs>
<clipPath id="clip0_9_299">
<rect width="150" height="150" fill="white"/>
</clipPath>
</defs>
</svg>
