<svg width="18" height="18" viewBox="0 0 18 18" fill="none" xmlns="http://www.w3.org/2000/svg">
<g clip-path="url(#clip0_21_1039)">
<path d="M17.5514 15.7719L17.5515 15.7719C17.7923 16.7352 17.1197 17.6001 16.3118 17.6001H1.68853C0.880206 17.6001 0.207622 16.7351 0.44849 15.7719L0.0604393 15.6749L0.448491 15.7719L3.01665 5.50174L3.01669 5.5016C3.11074 5.1249 3.4111 4.90049 3.71388 4.90049H5.83204H6.39915L6.20885 4.36626C6.09484 4.0462 6.02532 3.71693 6.02532 3.37549C6.02532 1.73242 7.35725 0.400488 9.00032 0.400488C10.6434 0.400488 11.9753 1.73242 11.9753 3.37549C11.9753 3.71673 11.9055 4.04606 11.7917 4.36659L11.602 4.90049H12.1686H14.2868C14.5895 4.90049 14.8896 5.12448 14.984 5.50172C14.984 5.50174 14.984 5.50176 14.984 5.50178L17.5514 15.7719ZM7.47497 3.37514C7.47497 4.21621 8.1589 4.90014 8.99997 4.90014C9.84104 4.90014 10.525 4.21621 10.525 3.37514C10.525 2.53407 9.84104 1.85014 8.99997 1.85014C8.1589 1.85014 7.47497 2.53407 7.47497 3.37514Z" stroke="#252222" stroke-width="0.8"/>
</g>
<defs>
<clipPath id="clip0_21_1039">
<rect width="18" height="18" fill="white"/>
</clipPath>
</defs>
</svg>
