<svg width="60" height="60" viewBox="0 0 60 60" fill="none" xmlns="http://www.w3.org/2000/svg">
<rect x="0.5" y="0.5" width="59" height="59" rx="11.5" stroke="#252222"/>
<g clip-path="url(#clip0_9_205)">
<path d="M46.2487 34.2098L46.2485 34.2123L46.2479 34.2178C45.426 42.6118 38.6401 49.133 30.4286 49.133C22.0984 49.133 15.2479 42.414 14.5933 33.8406C14.6041 33.6519 14.6528 33.4539 14.773 33.3067C14.8816 33.1737 15.1119 33.0043 15.6618 33.0043H44.8756C45.0845 33.0099 45.4555 33.046 45.7648 33.192C46.0444 33.324 46.2409 33.5224 46.2635 33.8946C46.2609 33.9423 46.2595 33.9889 46.2584 34.0281C46.2582 34.0346 46.258 34.0409 46.2578 34.047C46.2562 34.0989 46.2547 34.1391 46.2516 34.1757C46.2509 34.1828 46.2503 34.1891 46.2498 34.1943L46.2487 34.2098Z" stroke="#E44716"/>
<path d="M25.1535 20.9481L25.162 20.9503C25.3947 21.0091 25.6349 21.0482 25.8811 21.0625L26.1723 21.0794L26.6677 21.0818L27.016 21.0835V21.0854L35.3807 21.0842H35.3808C36.6147 21.0842 37.2182 21.4169 37.5133 21.7104L37.5561 21.7529L37.5821 21.8072C37.7284 22.1124 37.8202 22.4567 37.8202 22.8276C37.8202 23.636 37.4136 24.3479 36.8003 24.7746C36.7887 24.7833 36.7784 24.7901 36.7706 24.795C36.7656 24.7981 36.7609 24.801 36.7569 24.8033L36.7484 24.8089C36.658 24.8679 36.5654 24.9128 36.4909 24.9489L36.4801 24.9541L36.4688 24.9586C36.1854 25.0725 35.8431 25.1229 35.5917 25.1469C35.4621 25.1593 35.3484 25.1654 35.2669 25.1684C35.226 25.1699 35.193 25.1706 35.1697 25.1709L35.1423 25.1712L35.1346 25.1713L35.1322 25.1713H35.1319L35.1315 25.1713H35.1312H35.1311L31.2844 25.1713H31.2843L25.6445 25.1707L25.6395 25.1707L25.6395 25.1706L25.6393 25.1706L25.6352 25.1706L25.6163 25.1706C25.5991 25.1708 25.5728 25.1711 25.5388 25.1721C25.4708 25.1742 25.3725 25.1789 25.2548 25.1895C25.019 25.2108 24.7146 25.2549 24.4208 25.3443C24.4127 25.3471 24.4052 25.3496 24.3991 25.3517L24.3982 25.352L24.376 25.3597L24.3693 25.362L24.3625 25.3641C24.3064 25.3815 24.2487 25.4025 24.1873 25.4269C23.8776 25.5562 23.5683 25.7466 23.2998 26.0328L23.2922 26.041L23.292 26.0409C23.2818 26.0511 23.2728 26.0593 23.2672 26.0643L23.261 26.0699C23.2606 26.0703 23.2602 26.0707 23.2598 26.071L23.2472 26.0899L23.2209 26.1156C22.6565 26.6665 22.3055 27.4262 22.3055 28.2746C22.3055 28.4619 22.3295 28.6454 22.3702 28.8285C22.3889 28.8925 22.4266 28.982 22.4982 29.0541C22.5635 29.1198 22.6791 29.1946 22.9063 29.1957H23.1935C23.2513 29.1936 23.3111 29.1683 23.3813 29.0935C23.4571 29.0128 23.5265 28.8919 23.5853 28.7481C23.6428 28.6074 23.6825 28.4636 23.7079 28.3527C23.7204 28.2979 23.7291 28.2527 23.7346 28.2219C23.7373 28.2065 23.7392 28.1948 23.7404 28.1874L23.7416 28.1797L23.7417 28.1789L23.7417 28.1787L23.7417 28.1786L23.7418 28.1784L23.7418 28.1784L23.7885 27.8415L23.8585 27.8493C23.8948 27.7688 23.9372 27.6904 23.9861 27.6151C23.987 27.6137 23.9878 27.6123 23.9886 27.611C23.993 27.6039 23.9993 27.5941 24.0075 27.5828C24.0123 27.5762 24.0174 27.5697 24.0228 27.5632C24.0268 27.5582 24.0304 27.5538 24.0333 27.5503L24.0437 27.5382C24.0439 27.5379 24.0441 27.5377 24.0442 27.5375L24.0486 27.5315L24.057 27.5217C24.3155 27.2165 24.9159 26.8181 26.2629 26.8181L34.6294 26.8187V26.8164L34.9781 26.8151L35.4603 26.8133L35.7618 26.7958C36.0078 26.7815 36.2504 26.7423 36.4828 26.6835L36.4913 26.6814L36.4998 26.6797C38.2034 26.3381 39.487 24.8353 39.487 23.0325C39.487 22.4795 39.3574 21.9584 39.137 21.4849L39.1322 21.4746L39.1281 21.464C38.9676 21.0515 38.7303 20.683 38.4234 20.3836L38.4017 20.3625L38.3849 20.3391C38.3763 20.3317 38.3644 20.321 38.3522 20.3088L38.3446 20.3012L38.3447 20.3011C38.2334 20.1828 38.1109 20.0855 37.9737 19.9888L37.9665 19.9837L37.9666 19.9836L25.1535 20.9481ZM25.1535 20.9481L25.1449 20.9464C23.4396 20.6048 22.156 19.102 22.156 17.2986C22.156 15.6687 23.2134 14.2951 24.6817 13.7945L24.7326 13.7771L24.776 13.7452C24.7783 13.7435 24.7799 13.7423 24.781 13.7416L24.7821 13.7411C24.8495 13.7131 24.956 13.6846 25.1046 13.6583C25.1099 13.6576 25.1174 13.6565 25.126 13.6549C25.1281 13.6545 25.1304 13.6541 25.1328 13.6536M25.1535 20.9481L25.1328 13.6536M25.8645 13.5809C25.8761 13.5806 25.8864 13.5797 25.8953 13.5787C25.9013 13.5787 25.9089 13.5785 25.9173 13.5781H30.4888C30.9361 13.5781 31.262 13.4527 31.4774 13.2343C31.6876 13.0212 31.7445 12.768 31.7574 12.6062L31.7585 12.5924V12.5785V12.5777V12.577V12.5763V12.5755V12.5748V12.5741V12.5733V12.5726V12.5719V12.5711V12.5704V12.5697V12.5689V12.5682V12.5675V12.5667V12.566V12.5652V12.5645V12.5638V12.563V12.5623V12.5616V12.5608V12.5601V12.5593V12.5586V12.5579V12.5571V12.5564V12.5556V12.5549V12.5542V12.5534V12.5527V12.5519V12.5512V12.5504V12.5497V12.5489V12.5482V12.5475V12.5467V12.546V12.5452V12.5445V12.5437V12.543V12.5422V12.5415V12.5407V12.54V12.5392V12.5385V12.5377V12.537V12.5362V12.5355V12.5347V12.534V12.5332V12.5325V12.5317V12.531V12.5302V12.5294V12.5287V12.5279V12.5272V12.5264V12.5257V12.5249V12.5241V12.5234V12.5226V12.5219V12.5211V12.5204V12.5196V12.5188V12.5181V12.5173V12.5165V12.5158V12.515V12.5143V12.5135V12.5127V12.512V12.5112V12.5104V12.5097V12.5089V12.5081V12.5074V12.5066V12.5058V12.5051V12.5043V12.5035V12.5028V12.502V12.5012V12.5004V12.4997V12.4989V12.4981V12.4974V12.4966V12.4958V12.495V12.4943V12.4935V12.4927V12.4919V12.4912V12.4904V12.4896V12.4888V12.488V12.4873V12.4865V12.4857V12.4849V12.4841V12.4834V12.4826V12.4818V12.481V12.4802V12.4794V12.4787V12.4779V12.4771V12.4763V12.4755V12.4747V12.474V12.4732V12.4724V12.4716V12.4708V12.47V12.4692V12.4684V12.4676V12.4668V12.4661V12.4653V12.4645V12.4637V12.4629V12.4621V12.4613V12.4605V12.4597V12.4589V12.4581V12.4573V12.4565V12.4557V12.4549V12.4541V12.4533V12.4525V12.4517V12.4509V12.4501V12.4493V12.4485V12.4477V12.4469V12.4461V12.4453V12.4445V12.4437V12.4429V12.4421V12.4413V12.4404V12.4396V12.4388V12.438V12.4372V12.4364V12.4356V12.4348V12.434V12.4332V12.4323V12.4315V12.4307V12.4299V12.4291V12.4283V12.4274V12.4266V12.4258V12.425V12.4242V12.4234V12.4225V12.4217V12.4209V12.4201V12.4192V12.4184V12.4176V12.4168V12.416V12.4151V12.4143V12.4135V12.4126V12.4118V12.411V12.4102V12.4093V12.4085V12.4077V12.4068V12.406V12.4052V12.4043V12.4035V12.4027V12.4018V12.401V12.4002V12.3993V12.3985V12.3977V12.3968V12.396V12.3952V12.3943V12.3935V12.3926V12.3918V12.3909V12.3901V12.3893V12.3884V12.3876V12.3867V12.3859V12.385V12.3842V12.3833V12.3825V12.3816V12.3808V12.3799V12.3791V12.3782V12.3774V12.3765V12.3757V12.3748V12.374V12.3731V12.3723V12.3714V12.3706V12.3697V12.3688V12.368V12.3671V12.3663V12.3654V12.3645V12.3637V12.3628V12.362V12.3611V12.3602V12.3594V12.3585V12.3576V12.3568V12.3559V12.355V12.3542V12.3533V12.3524V12.3516V12.3507V12.3498V12.3489V12.3481V12.3472V12.3463V12.3454V12.3446V12.3437V12.3428V12.3419V12.3411V12.3402V12.3393V12.3384V12.3375V12.3367V12.3358V12.3349V12.334V12.3331V12.3322V12.3314V12.3305V12.3296V12.3287V12.3278V12.3269V12.326V12.3251V12.3242V12.3233V12.3225V12.3216V12.3207V12.3198V12.3189V12.318V12.3171V12.3162V12.3153V12.3144V12.3135V12.3126V12.3117V12.3108V12.3099V12.309V12.3081V12.3072V12.3063V12.3054V12.3045V12.3036V12.3026V12.3017V12.3008V12.2999V12.299V12.2981V12.2972V12.2963V12.2954V12.2944V12.2935V12.2926V12.2917V12.2908V12.2899V12.2889V12.288V12.2871V12.2862V12.2853V12.2843V12.2834V12.2825V12.2816V12.2806V12.2797V12.2788V12.2779V12.2769V12.276V12.2751V12.2742V12.2732V12.2723V12.2714V12.2704V12.2695V12.2686V12.2676V12.2667V12.2657V12.2648V12.2639V12.2629V12.262V12.2611V12.2601V12.2592V12.2582V12.2573V12.2563V12.2554V12.2544V12.2535V12.2526V12.2516V12.2507V12.2497V12.2488V12.2478V12.2468V12.2459V12.2449V12.244V12.243V12.2421V12.2411V12.2402V12.2392V12.2382V12.2373V12.2363V12.2354V12.2344V12.2334V12.2325V12.2315V12.2305V12.2296V12.2286V12.2276V12.2267V12.2257V12.2247V12.2238V12.2228V12.2218V12.2208V12.2199V12.2189V12.2179V12.2169V12.216V12.215V12.214V12.213V12.212V12.2111V12.2101V12.2091V12.2081V12.2071V12.2061V12.2052V12.2042V12.2032V12.2022V12.2012V12.2002V12.1992V12.1982V12.1972V12.1962V12.1952V12.1943V12.1933V12.1923V12.1913V12.1903V12.1893V12.1883V12.1873V12.1863V12.1853V12.1843V12.1832V12.1822V12.1812V12.1802V12.1792V12.1782V12.1772V12.1762V12.1752V12.1742V12.1732V12.1721V12.1711V12.1701V12.1691V12.1681V12.1671V12.166V12.165V12.164V12.163V12.162V12.1609V12.1599V12.1589V12.1579V12.1568V12.1558V12.1548V12.1537V12.1527V12.1517V12.1506V12.1496V12.1486V12.1475V12.1465V12.1455V12.1444V12.1434V12.1424V12.1413V12.1403V12.1392V12.1382V12.1371V12.1361C31.7585 12.0238 31.7902 11.9502 31.8342 11.8942C31.8823 11.8328 31.96 11.7744 32.0737 11.724C32.294 11.6263 32.5843 11.5868 32.8424 11.5758C32.857 11.5814 32.8774 11.5912 32.8966 11.6075C32.9123 11.6209 32.9295 11.6405 32.9438 11.6724C32.9583 11.7047 32.9744 11.7597 32.9744 11.8492V13.2116C32.9481 13.4712 32.8653 13.8469 32.6266 14.1541C32.3968 14.4498 31.9906 14.7242 31.2199 14.7242H30.8426H30.3598H26.1959C24.8865 14.7242 23.8246 15.7854 23.8246 17.0955C23.8246 17.9015 24.2265 18.6113 24.8391 19.0388C24.8482 19.0459 24.8564 19.0518 24.8633 19.0565C24.8781 19.0665 24.8911 19.0739 24.8968 19.0771L24.8973 19.0774C24.9746 19.1286 25.0599 19.1707 25.1204 19.2005C25.1303 19.2054 25.1396 19.21 25.1481 19.2142L25.1609 19.2206L25.1742 19.226C25.4585 19.3401 25.8013 19.3907 26.0531 19.4148C26.183 19.4272 26.2968 19.4333 26.3784 19.4363C26.4193 19.4378 26.4524 19.4385 26.4757 19.4389L26.5031 19.4392L26.5108 19.4392L26.5132 19.4392H26.5136L26.5139 19.4392H26.5142H26.5143L28.0148 19.4392H28.3373H35.2403H35.2539L35.2672 19.4382L35.2672 19.4382L35.2673 19.4382L35.2674 19.4381L35.2694 19.438L35.2793 19.4373C35.2885 19.4367 35.3027 19.4359 35.3216 19.4349C35.3592 19.4329 35.4153 19.4306 35.4862 19.429C35.6283 19.426 35.8289 19.4265 36.0608 19.4407C36.5299 19.4693 37.0991 19.5523 37.5697 19.7562C37.6697 19.8027 37.7635 19.8503 37.8535 19.9061L25.8512 13.2312M25.8645 13.5809C25.8602 13.5811 25.8558 13.5812 25.8512 13.5812V13.5773C25.8462 13.5769 25.8419 13.5764 25.8384 13.576L25.8271 13.5744L25.8257 13.5741M25.8645 13.5809C25.5931 13.5948 25.3417 13.6186 25.1328 13.6536M25.8645 13.5809C25.866 13.5809 25.8675 13.5808 25.8689 13.5807L25.8688 13.5785L25.1328 13.6536M25.8257 13.5741L25.8357 13.5755C25.8396 13.576 25.8449 13.5766 25.8512 13.5771V13.2312M25.8257 13.5741L25.8241 13.5739L25.8233 13.5737C25.8238 13.5738 25.8247 13.574 25.8257 13.5741ZM25.8512 13.2312L25.8688 13.578C25.8717 13.5781 25.8746 13.5781 25.8777 13.5781C25.8796 13.5781 25.8814 13.5781 25.8832 13.5781C25.8927 13.5779 25.901 13.5773 25.9079 13.5766V13.2281C25.9006 13.2288 25.891 13.2288 25.8832 13.2288C25.8822 13.2288 25.8813 13.2286 25.8804 13.2285C25.8795 13.2283 25.8786 13.2281 25.8777 13.2281C25.8729 13.2281 25.8687 13.2289 25.8645 13.2297C25.8602 13.2304 25.856 13.2312 25.8512 13.2312ZM35.7821 27.1621L35.782 27.1452L35.782 27.1429L35.7797 26.8121L35.7628 26.8122L35.6086 26.8133C35.608 26.8133 35.6075 26.8133 35.607 26.8133L35.6086 27.1621L35.6086 27.1633M35.7821 27.1621H35.6086V27.1633M35.7821 27.1621L35.6086 27.1633M35.7821 27.1621L35.6086 27.1633M23.9912 27.6074L23.9898 27.6096C23.9902 27.6089 23.9907 27.6081 23.9912 27.6074Z" stroke="#E44716" stroke-width="0.7"/>
</g>
<defs>
<clipPath id="clip0_9_205">
<rect width="38.5714" height="38.5714" fill="white" transform="translate(11.1429 11.1428)"/>
</clipPath>
</defs>
</svg>
